#!OML:ASF E:/inclinewalkrobotboard/Project1/Captureday1/Session1/subject1.ASF
:FULLY-SPECIFIED
:DEGREES
126
root 0 0 0 -11.415270378682672 -38.07879276916788 -1.9735925481349366
lowerback -1.880459447162302 -1.1901200732824686 1.1240868934913424
upperback -3.073631013881895 -1.1830731746919905 0.2562834043046974
thorax -2.1377194091058187 -0.5698241293198265 -0.060558444408473855
lowerneck -15.102949397535628 -1.7333910674433515 -7.011404205418892
upperneck -0.4842545232292643 -2.2084306769515867 4.740857065936401
head 2.8441669488346255 -0.8293173520794948 2.4111692021690154
rclavicle -1.1134393485880934E-14 2.8911117930362975E-19
rhumerus 3.1880542194065504 -12.158093634623787 -67.26916578690701
rradius 18.120063570658225
rwrist 57.88595016407693
rhand -7.338601307968181 21.70741305224342
rfingers 7.125019999999914
rthumb 18.550395397639527 -7.992412439301816
lclavicle -1.08951397023814E-14 4.2210162245188674E-15
lhumerus -30.13622735635029 1.2963125477488049 80.80414174137458
lradius 27.384424798764385
lwrist -40.71306236784463
lhand -7.177985165741085 14.534074101190114
lfingers 7.039881003952642
lthumb 18.381130762413175 48.82958832726842
rfemur 1.5045526277477776 8.23470277643095 36.30557794917886
rtibia 24.41348458855798
rfoot -16.787924648872423 -5.157907500574197
rtoes 11.889657418161766
lfemur 19.648583560142804 -2.7663001668328793 -23.787323728976332
ltibia 37.306958162304106
lfoot -0.8187456606210457 -13.172743454440727
ltoes -17.54163918061336
127
root 0 0 0 -12.149518712872673 -38.225295753395514 -2.106680154771766
lowerback -2.293094655813235 -1.1011569498671108 1.2498582773563909
upperback -3.1551725705125677 -1.0393562727870167 0.1971599157808881
thorax -2.0011995816724504 -0.4971494659202483 -0.20494726798280427
lowerneck -14.926381760044745 -1.7442788387598238 -6.942157231922931
upperneck -0.6567961135483902 -2.2489950531570826 4.650908488559287
head 2.775732411275134 -0.8498226385839069 2.368509010050137
rclavicle -1.1248072680108946E-14 1.3940398430638796E-17
rhumerus 3.3510372726002826 -12.061940797339899 -67.18338265660721
rradius 18.003050814578785
rwrist 57.879751640627944
rhand -7.292610251258891 21.68094315865703
rfingers 7.125019999999914
rthumb 18.593417651817752 -8.01901588154088
lclavicle -1.1256772254271375E-14 4.176298025568042E-15
lhumerus -30.174829237910096 1.59685893928879 80.6363870477377
lradius 27.14073950231031
lwrist -40.77401868083706
lhand -6.9788148388814255 14.50510800967967
lfingers 7.039938609434889
lthumb 18.57307587839008 47.73785487183348
rfemur 2.4260719880032937 8.341762109432292 36.52610140579264
rtibia 24.25901424396373
rfoot -17.455750774488923 -5.1735235439617755
rtoes 11.253241890384944
lfemur 18.340706468641663 -2.398314181640111 -22.80442212124961
ltibia 40.77546598555944
lfoot 1.0548424481557248 -14.051246096966821
ltoes -17.281368676967112
128
root 0 0 0 -13.023604991458805 -38.56640267266256 -2.174792882646376
lowerback -2.638582899110734 -0.9936094749534408 1.4321270645995985
upperback -3.202901739752941 -0.8691773082386153 0.13758972270658965
thorax -1.8653759859907852 -0.4118097291199773 -0.38476721131276875
lowerneck -14.685922313186651 -1.7216293444315742 -6.8188218868725645
upperneck -0.8407903168939974 -2.245950960231702 4.573307104292983
head 2.688396114276289 -0.8489203505485114 2.3256256485151816
rclavicle -1.1346746309415586E-14 2.5171396911402645E-17
rhumerus 3.4848559102579744 -11.933647182301689 -67.12131942517017
rradius 17.877497674313588
rwrist 57.87949212574219
rhand -7.243555044360244 21.652190069278586
rfingers 7.125019999999914
rthumb 18.639298398062866 -8.047768327984496
lclavicle -1.1487885423182417E-14 4.139898729478325E-15
lhumerus -30.196834960669165 1.8705414471695718 80.47891451661481
lradius 26.928775690325665
lwrist -40.8529038904466
lhand -6.795058224358698 14.48106951659571
lfingers 7.039981645177693
lthumb 18.74973542987975 46.88502103191239
rfemur 3.526745791439861 8.454641241117544 36.750880411461935
rtibia 24.140193539567377
rfoot -18.080155298138514 -5.1448361676079415
rtoes 10.490972012790394
lfemur 16.043375259224106 -1.9993958746816431 -21.595097494509503
ltibia 44.15345013833632
lfoot 3.3220449033047377 -15.033712368783767
ltoes -16.780208455459285
129
root 0 0 0 -13.965324850732836 -39.01097142775693 -2.1108825290594164
lowerback -2.8183546443367167 -0.8688657724721613 1.7064432553274074
upperback -3.186825965283068 -0.6731697528474719 0.0830623519497462
thorax -1.7502782755104445 -0.3145907058009086 -0.6155731245936762
lowerneck -14.36546358437867 -1.6283741026683136 -6.618822346956905
upperneck -1.0575454464335081 -2.136125612233232 4.49499446888519
head 2.5680723691810967 -0.7973283293303588 2.2808091568861313
rclavicle -1.1410711656992918E-14 2.837939067184926E-17
rhumerus 3.5601894748304943 -11.767135473109215 -67.09754366581708
rradius 17.748212355528295
rwrist 57.886437793495446
rhand -7.190760757809244 21.621389730445404
rfingers 7.125019999999915
rthumb 18.68873595951347 -8.078232672636165
lclavicle -1.1513406420598525E-14 4.0996106761125205E-15
lhumerus -30.216494176282993 2.090833826794398 80.3507183814287
lradius 26.75936454239293
lwrist -40.94209981228174
lhand -6.629268167112193 14.468546796741968
lfingers 7.039921334176132
lthumb 18.90819321867381 46.27085234072803
rfemur 4.735731024053269 8.568706316164105 36.957123724134476
rtibia 24.07894946745294
rfoot -18.61235152621052 -5.073972188815823
rtoes 9.66251652303903
lfemur 12.562894640752537 -1.5383275703007835 -20.10417638496645
ltibia 47.642316232524195
lfoot 6.058931656709175 -16.165936489720306
ltoes -16.019393492059763
130
root 0 0 0 -15.160883882649408 -39.47696775847696 -1.5994795122787298
lowerback -2.5284757313022705 -0.6429612455686622 2.4120635539811817
upperback -2.980863309299632 -0.31316128422916834 0.015329139023846805
thorax -1.6778269692037482 -0.13880888508059086 -1.1282118739111686
lowerneck -13.732310066101384 -1.2567291757944514 -6.137578916021055
upperneck -1.595591811550701 -1.5820368029686969 4.318439206890748
head 2.2678286702792634 -0.5403600768930805 2.206953863263986
rclavicle -1.1415644293155455E-14 1.2985494566585878E-17
rhumerus 3.5265750217307974 -11.434916118064729 -67.14770919503269
rradius 17.558397942160163
rwrist 57.89646350731741
rhand -7.098627198166271 21.56371344578379
rfingers 7.125019999999915
rthumb 18.775208158371964 -8.13400752026423
lclavicle -1.1216373159630952E-14 4.042342693092792E-15
lhumerus -30.274406532270554 2.2241190321387734 80.28663450363541
lradius 26.70193166309663
lwrist -41.026129993895665
lhand -6.461973249902944 14.48177837872636
lfingers 7.039731458930851
lthumb 19.06669965115511 45.95073223228885
rfemur 6.30829143141268 8.71736999915644 37.1707604544905
rtibia 24.136691516676144
rfoot -19.2174797666442 -4.9687357305419075
rtoes 8.634294351002364
lfemur 6.228224024819633 -0.7085897165850892 -17.833174555212686
ltibia 53.226513934552536
lfoot 9.798177685887753 -17.64195681199634
ltoes -14.653945273852663
131
root 0 0 0 -15.535131172607052 -39.4951266804119 -0.9184335626949689
lowerback -1.9858669294718148 -0.4667348672250391 3.0446430410909375
upperback -2.7394627965361127 -0.03348484841221733 -0.03087482206539205
thorax -1.7025910287257398 -0.0036070509842968113 -1.5723493718659491
lowerneck -13.270277664897932 -0.8804482216004661 -5.713858124674743
upperneck -2.1353365473301533 -0.9882568040721176 4.159981805332208
head 1.9804955480332556 -0.2639464338293094 2.154299559185156
rclavicle -1.138277872796731E-14 -2.1403261893254307E-17
rhumerus 3.4933817298736383 -11.195001693618385 -67.19267715176164
rradius 17.450416022992066
rwrist 57.87318829882756
rhand -7.0336415238496155 21.505128437525183
rfingers 7.125019999999916
rthumb 18.836083426011577 -8.190275550355612
lclavicle -1.0945343131706037E-14 3.952158828116692E-15
lhumerus -30.315323606128167 2.173564560654004 80.31792309481966
lradius 26.76400090079772
lwrist -41.024826219236374
lhand -6.404034877343925 14.505909922986081
lfingers 7.039134036541283
lthumb 19.11901491705248 45.88474742180351
rfemur 7.008571718966984 8.788938687559817 37.24812660113599
rtibia 24.270198743196232
rfoot -19.604484550431117 -4.953365569546139
rtoes 8.185811183819782
lfemur 2.1875987234870795 0.0022380647717195057 -16.689345904011162
ltibia 57.30117801917604
lfoot 10.781667417092303 -17.966162950315507
ltoes -13.994703956120704
132
root 0 0 0 -15.252265482577418 -39.19812530343706 -0.05042475997721246
lowerback -1.5176048580314045 -0.3065703491819667 3.5859432704743046
upperback -2.5077407912847547 0.21302742375117567 -0.069707559656084
thorax -1.7050170123206632 0.1157487502435886 -1.9516305506157308
lowerneck -12.843244784000753 -0.5216851400178668 -5.31629375360379
upperneck -2.5144820801287384 -0.4489108695648709 3.9482437685795104
head 1.7269340472578487 -0.0037727892143328834 2.0800058529979237
rclavicle -1.131722586824623E-14 -5.449272893544328E-17
rhumerus 3.4589155957740374 -10.922709197036587 -67.22367060740086
rradius 17.39475361153358
rwrist 57.77814975922176
rhand -6.977640467359272 21.408773526697164
rfingers 7.125019999999916
rthumb 18.88811299266789 -8.283338594317563
lclavicle -1.0759742962844568E-14 3.86300751287418E-15
lhumerus -30.373922054792033 2.0066859863361053 80.43538282934819
lradius 26.955957472274285
lwrist -40.93980503494889
lhand -6.433516781285763 14.53764083460209
lfingers 7.038317412393814
lthumb 19.087195174453413 45.868531493326145
rfemur 7.289714862731945 8.838595452375376 37.2808997386029
rtibia 24.433025294346614
rfoot -20.14852303474423 -5.051035656995769
rtoes 7.991389562086978
lfemur -1.6906324924910816 0.8392632693578743 -15.76549339729026
ltibia 61.41502858116462
lfoot 10.520670196100236 -17.778338893105442
ltoes -13.829615033975685
